<?xml version="1.0" standalone="no"?>
<!DOCTYPE svg PUBLIC "-//W3C//DTD SVG 20010904//EN"
 "http://www.w3.org/TR/2001/REC-SVG-20010904/DTD/svg10.dtd">
<svg version="1.0" xmlns="http://www.w3.org/2000/svg"
 width="256.000000pt" height="256.000000pt" viewBox="0 0 256.000000 256.000000"
 preserveAspectRatio="xMidYMid meet">

<g transform="translate(0.000000,256.000000) scale(0.100000,-0.100000)"
fill="#000000" stroke="none">
<path d="M1190 2463 c-70 -8 -179 -52 -221 -90 -14 -11 -18 -12 -22 -1 -3 7
-8 -6 -12 -29 -5 -28 -14 -44 -25 -48 -26 -8 -70 -44 -70 -57 0 -6 7 -5 16 3
10 8 3 -11 -15 -42 -30 -54 -31 -60 -31 -175 0 -84 -4 -125 -14 -139 -7 -11
-16 -33 -18 -49 -7 -36 9 -156 27 -208 12 -36 12 -38 -9 -42 -110 -21 -136
-29 -154 -49 -24 -26 -42 -69 -42 -102 0 -14 -18 -45 -41 -72 -50 -57 -69 -99
-69 -152 l0 -40 -102 -53 c-189 -97 -288 -234 -357 -498 -31 -114 -31 -118
-31 -367 l0 -253 1275 0 c782 0 1275 4 1275 9 0 30 -79 348 -117 471 -135 438
-233 575 -470 660 -56 20 -63 26 -63 50 0 15 -11 48 -25 74 -14 26 -25 60 -25
77 0 62 -60 141 -117 155 -17 5 -22 11 -18 22 3 9 5 63 4 121 -2 161 0 193 17
212 19 21 11 39 -18 39 -23 0 -23 -1 1 134 6 32 9 62 6 66 -2 3 -9 35 -14 70
-6 34 -17 71 -26 80 -9 10 -15 21 -13 26 5 17 -104 114 -161 144 -87 46 -207
65 -321 53z m254 -313 c54 -21 83 -20 70 2 -4 6 7 1 24 -12 17 -12 41 -23 53
-24 32 -1 58 -51 66 -127 l6 -63 -28 18 c-25 16 -34 17 -89 6 -44 -10 -68 -21
-88 -42 -24 -25 -34 -29 -70 -26 -25 2 -44 8 -44 16 -1 6 -2 16 -3 21 -3 23
-155 56 -210 46 -20 -4 -42 -11 -48 -17 -18 -14 -16 3 2 26 10 14 15 45 15 98
l0 78 28 -6 c15 -2 34 0 42 6 13 9 13 11 0 21 -29 20 212 2 274 -21z m-261
-277 c-7 -2 -19 -2 -25 0 -7 3 -2 5 12 5 14 0 19 -2 13 -5z m511 -83 l-8 -35
-6 35 c-3 19 -4 46 -1 59 l4 25 9 -25 c5 -13 6 -40 2 -59z m-380 15 c-9 -5
-31 -23 -48 -38 l-31 -28 32 15 c41 21 46 20 34 -3 -12 -21 -60 -41 -101 -41
-66 0 -110 36 -110 90 0 25 5 25 42 -2 19 -13 47 -22 76 -23 37 -1 52 4 79 28
18 16 34 36 34 46 1 9 4 5 6 -9 3 -17 -1 -28 -13 -35z m349 -28 c4 -44 3 -49
-20 -58 -32 -12 -83 -11 -121 2 -33 11 -66 53 -58 72 2 7 5 4 5 -6 1 -28 91
-52 105 -28 3 4 -7 6 -22 4 -27 -3 -27 -3 3 9 53 23 74 38 81 60 9 29 20 7 27
-55z m-607 26 c16 -89 52 -118 148 -118 l61 0 -3 -36 c-3 -23 2 -41 12 -52 19
-18 17 -20 -47 -37 -56 -15 -71 -37 -64 -93 3 -23 2 -35 -2 -28 -6 10 -10 9
-15 -5 -5 -14 -12 -10 -37 24 -17 23 -34 40 -38 37 -5 -2 -22 17 -38 43 -29
44 -31 53 -33 157 -4 148 -4 145 25 145 20 0 25 -6 31 -37z m203 24 c13 -16 5
-27 -20 -27 -12 0 -16 6 -12 20 6 23 16 25 32 7z m159 -9 c3 -13 20 -52 39
-87 18 -35 33 -73 32 -85 0 -12 -2 -16 -5 -11 -5 13 -165 7 -181 -6 -18 -16
-28 29 -10 49 8 9 27 44 44 78 16 33 33 66 37 72 12 20 37 13 44 -10z m142 12
c0 -5 -4 -10 -10 -10 -5 0 -10 5 -10 10 0 6 5 10 10 10 6 0 10 -4 10 -10z m32
-22 c-15 -15 -26 -4 -18 18 5 13 9 15 18 6 9 -9 9 -15 0 -24z m-428 7 c3 -9 0
-15 -9 -15 -16 0 -27 14 -18 24 10 10 21 7 27 -9z m341 -13 c-8 -8 -25 10 -19
20 4 6 9 5 15 -3 4 -7 6 -15 4 -17z m205 -135 c0 -30 -13 -68 -46 -132 -25
-50 -49 -94 -54 -99 -11 -11 -24 38 -16 60 10 25 -11 51 -59 74 -45 22 -45 23
-29 42 14 15 16 24 8 46 l-10 27 77 0 c60 0 82 4 95 17 24 24 34 14 34 -35z
m-212 -141 c50 -16 4 -26 -121 -26 l-132 1 50 17 c51 18 159 22 203 8z m60
-65 c7 -14 12 -34 11 -45 -1 -18 -2 -17 -9 4 -8 24 -8 24 -9 2 -1 -28 -40 -82
-58 -82 -7 0 -13 -4 -13 -8 0 -12 -214 -5 -218 7 -2 5 -18 15 -37 21 -26 8
-34 17 -37 41 -3 19 1 36 9 45 8 8 12 18 9 23 -9 15 5 16 178 16 l163 0 11
-24z m-20 -349 c-7 -11 -43 -42 -80 -70 l-67 -50 -41 31 c-33 26 -38 33 -22
35 10 2 63 25 118 51 71 35 100 44 102 35 2 -8 -3 -22 -10 -32z m-310 -85 c18
-21 31 -96 52 -301 21 -208 26 -351 11 -360 -14 -9 -20 32 -31 196 -17 265
-43 458 -62 458 -5 0 -6 -6 -2 -12 5 -10 4 -10 -6 -1 -14 13 -5 33 14 33 8 0
18 -6 24 -13z m400 -5 c2 -7 -2 -10 -12 -6 -19 7 -19 4 -5 -33 14 -36 25 -103
55 -338 27 -215 31 -299 12 -293 -9 3 -20 73 -34 214 -12 115 -31 264 -43 332
-12 68 -21 128 -21 133 0 15 43 7 48 -9z m-331 -724 c-2 -13 -4 -5 -4 17 -1
22 1 32 4 23 2 -10 2 -28 0 -40z m390 -30 c-3 -7 -5 -2 -5 12 0 14 2 19 5 13
2 -7 2 -19 0 -25z"/>
<path d="M1134 1772 c21 -24 89 -31 101 -11 5 7 -4 8 -28 4 -25 -5 -43 -2 -63
11 l-29 18 19 -22z"/>
<path d="M1293 1421 c-3 -31 24 -44 86 -44 67 1 101 15 101 43 0 18 -7 20 -93
20 -85 0 -93 -2 -94 -19z"/>
</g>
</svg>
